/* XPM */
static char *_e0cb8b984d6403e915ebfa737ee790fh5koLIwipqzwsJSU[] = {
/* columns rows colors chars-per-pixel */
"32 32 102 2 ",
"   c #E1AD12",
".  c #EFAE14",
"X  c #EBAE1A",
"o  c #F0AE12",
"O  c #E7B511",
"+  c #ECB411",
"@  c #EAB911",
"#  c #EDB11B",
"$  c #F2B312",
"%  c #F3BB10",
"&  c #DDB32F",
"*  c #DCB432",
"=  c #DCB935",
"-  c #D5B639",
";  c #D2B93F",
":  c #DABA38",
">  c #E6B225",
",  c #E9B322",
"<  c #E2B52C",
"1  c #E2B82E",
"2  c #EFC010",
"3  c #F5C510",
"4  c #F8C710",
"5  c #F7CA10",
"6  c #FACD10",
"7  c #BFBF57",
"8  c #BBBF5C",
"9  c #9FBA6D",
"0  c #A5BE6F",
"q  c #B2BF64",
"w  c #CCB844",
"e  c #C6BA4E",
"r  c #CBBD4A",
"t  c #D1BE45",
"y  c #C5BD52",
"u  c #BCC15D",
"i  c #9EC27C",
"p  c #B7C162",
"a  c #BCC461",
"s  c #B7C668",
"d  c #B7C86A",
"f  c #A3C275",
"g  c #ABC572",
"h  c #ADCB78",
"j  c #B1C973",
"k  c #C5C255",
"l  c #C9C151",
"z  c #C2C25A",
"x  c #7CC49D",
"c  c #79D0AF",
"v  c #75CDB2",
"b  c #6ED2BF",
"n  c #75D0B5",
"m  c #7DD4B3",
"M  c #75D6BD",
"N  c #78D5BA",
"B  c #75DABF",
"V  c #78D8BF",
"C  c #5ED7D6",
"Z  c #5DDBDC",
"A  c #67D4C6",
"S  c #6CD5C5",
"D  c #65D7CD",
"F  c #69D5C9",
"G  c #6DDACB",
"H  c #75D9C3",
"J  c #78D8C0",
"K  c #61D7D2",
"L  c #65D9D2",
"P  c #6ADCD1",
"I  c #61DCDA",
"U  c #5CDEE1",
"Y  c #5EDFE1",
"T  c #5BE0E4",
"R  c #5CE1E6",
"E  c #8BBD86",
"W  c #91BF82",
"Q  c #97C281",
"!  c #9BC886",
"~  c #94C78B",
"^  c #9ECE8A",
"/  c #8EC791",
"(  c #8EC892",
")  c #83C99F",
"_  c #8ACB9A",
"`  c #90CA94",
"'  c #95D197",
"]  c #97D496",
"[  c #99D093",
"{  c #A4CB81",
"}  c #A2CB87",
"|  c #A0CD89",
" . c #83CAA0",
".. c #89CFA1",
"X. c #84D1A7",
"o. c #8DD2A2",
"O. c #8FD6A0",
"+. c #8AD3A7",
"@. c #8CD3A4",
"#. c #80D0A9",
"$. c #86D4AA",
"%. c #85D5AD",
/* pixels */
"R R R R R R R R R R R R R R R R R R R R R R R R R R R R R R R R ",
"R R R R R R R R R R R R R R R R R R R R R R R R R R R R R R R R ",
"R R R R R R R R R R R R R R R R R R R R R R R R R R R R R R R R ",
"R R R R R R R R R R Z A #.[ | } } ^ ' c D Z R R R R R R R R R R ",
"R R R R R R R R Z m { 8 w - * & & * - r p ^ M Z R R R R R R R R ",
"R R R R R R Y S ~ y < $ $ % % % % % $ $ # * u _ L R R R R R R R ",
"R R R R R Y b f * $ $ % 3 5 5 6 6 5 5 3 % $ # ; ~ F R R R R R R ",
"R R R R Y S 0 > o % 4 6 6 6 6 6 6 6 6 6 6 3 % o * Q L R R R R R ",
"R R R T D i > o % 5 6 6 6 6 6 6 6 6 6 6 6 6 5 % o & / I R R R R ",
"R R R I ) < . % 5 6 6 6 6 6 5 3 4 5 6 6 6 6 6 5 % . ; v Y R R R ",
"R R R H k X % 5 6 6 6 6 6 5 2 O O 3 6 6 6 6 6 6 4 % , s P R R R ",
"R R Z  ., $ 4 6 6 6 6 6 6 4 O     @ 5 6 6 6 6 6 6 3 . = n Y R R ",
"R R F 9 . % 5 6 6 6 6 6 6 4 O     @ 5 6 6 6 6 6 6 5 % > W L R R ",
"R R m ; . 4 6 6 6 6 6 6 6 4 O     @ 5 6 6 6 6 6 6 6 3 X 7 G R R ",
"R R +.# . 5 6 6 6 6 6 6 6 4 O     @ 5 6 6 6 6 6 6 6 4 . = H R R ",
"R R o.$ $ 5 6 6 6 6 6 6 6 4 O     @ 5 6 6 6 6 6 6 6 4 o > J R R ",
"R R o.$ $ 5 6 6 6 6 6 6 6 4 O     @ 5 6 6 6 6 6 6 6 5 $ , V R R ",
"R R o.$ $ 5 6 6 6 6 6 6 6 4 O     @ 5 6 6 6 6 6 6 6 4 $ , V R R ",
"R R @.$ + 5 6 6 6 6 6 6 6 4 O     @ 5 6 6 6 6 6 6 6 4 . < H R R ",
"R R %.1 . 4 6 6 6 6 6 6 6 4 O     @ 5 6 6 6 6 6 6 6 4 . t H R R ",
"R R H u . 3 6 6 6 6 6 6 6 4 O     @ 5 6 6 6 6 6 6 5 % X g P R R ",
"R R K E # % 5 6 6 6 6 6 6 4 O     @ 5 6 6 6 6 6 6 4 $ < x Z R R ",
"R R Y m : . 3 6 6 6 6 6 6 5 @     @ 5 6 6 6 6 6 5 % X r S R R R ",
"R R R L i # $ 4 6 6 6 6 6 6 4 @ @ 5 6 6 6 6 6 6 3 o < ( I R R R ",
"R R R Y M l X $ 4 6 6 6 6 6 6 5 5 6 6 6 6 6 6 3 $ , d G R R R R ",
"R R R R I X.r # $ 3 6 6 6 6 6 6 6 6 6 6 6 5 % $ # z N Y R R R R ",
"R R R R R I ..l # $ % 4 5 6 6 6 6 6 6 5 3 % $ > a m Z R R R R R ",
"R R R R R R I $.q & $ $ % % 3 3 3 3 % % $ # - g m Y R R R R R R ",
"R R R R R R R Y b ! k : > # $ $ $ $ # > ; a ` F R R R R R R R R ",
"R R R R R R R R R Z B ] j z e e e y u h O.G Y R R R R R R R R R ",
"R R R R R R R R R R R R Y Z C C C C Z Y R R R R R R R R R R R R ",
"R R R R R R R R R R R R R R R R R R R R R R R R R R R R R R R R "
};
