/* XPM */
static char *b4d53ac792f4437ab32b737e0775b4aaNabp6rMAh4bzh2Pr[] = {
/* columns rows colors chars-per-pixel */
"32 32 135 2 ",
"   c #2F190B",
".  c #341C0C",
"X  c #3F210F",
"o  c #3A2011",
"O  c #3F2212",
"+  c #3A2A18",
"@  c #3C2A18",
"#  c #1F322F",
"$  c #1D3736",
"%  c #20332F",
"&  c #233735",
"*  c #2A3B37",
"=  c #40220F",
"-  c #48230B",
";  c #4C260D",
":  c #51270D",
">  c #54290D",
",  c #582B0D",
"<  c #5E2E0E",
"1  c #452410",
"2  c #422514",
"3  c #462714",
"4  c #412E1A",
"5  c #542C13",
"6  c #562D14",
"7  c #582E12",
"8  c #46301B",
"9  c #46321D",
"0  c #5E3115",
"q  c #52311F",
"w  c #5C321A",
"e  c #5D341C",
"r  c #623213",
"t  c #633314",
"y  c #643314",
"u  c #6E3510",
"i  c #6E3A1A",
"p  c #723A17",
"a  c #773B17",
"s  c #7F3E13",
"d  c #7A3B15",
"f  c #7B3D17",
"g  c #7F3E16",
"h  c #773C18",
"j  c #733C1C",
"k  c #753D1D",
"l  c #573523",
"z  c #533B23",
"x  c #5D3A29",
"c  c #603C2A",
"v  c #673F29",
"b  c #33433E",
"n  c #7E431E",
"m  c #65402E",
"M  c #664430",
"N  c #694330",
"B  c #6C4833",
"V  c #7F4D33",
"C  c #7A5834",
"Z  c #79503A",
"A  c #2D696B",
"S  c #2F6B6D",
"D  c #2E6E6F",
"F  c #3D736F",
"G  c #3B7370",
"H  c #854219",
"J  c #894318",
"K  c #B2561D",
"L  c #B8591E",
"P  c #BC5B1F",
"I  c #BF5D1F",
"U  c #8A4A24",
"Y  c #944F27",
"T  c #985226",
"R  c #804F36",
"E  c #835036",
"W  c #845035",
"Q  c #85533A",
"!  c #87543A",
"~  c #89553B",
"^  c #8E573A",
"/  c #8D593F",
"(  c #965C3D",
")  c #B46232",
"_  c #C25E1F",
"`  c #C25E20",
"'  c #C45F20",
"]  c #C96121",
"[  c #CD6322",
"{  c #D06522",
"}  c #D56723",
"|  c #915B40",
" . c #986044",
".. c #A16241",
"X. c #A56543",
"o. c #A96745",
"O. c #A3674B",
"+. c #A96B4C",
"@. c #AA6C4D",
"#. c #AC6D4E",
"$. c #AC6D4F",
"%. c #B26D48",
"&. c #BB724B",
"*. c #B57252",
"=. c #BA7452",
"-. c #BA7756",
";. c #BF7854",
":. c #BD7958",
">. c #C17A57",
",. c #CA7B50",
"<. c #C07A58",
"1. c #C37D5A",
"2. c #CA805B",
"3. c #CB825E",
"4. c #CE825C",
"5. c #D08560",
"6. c #D48762",
"7. c #E18F68",
"8. c #E49169",
"9. c #3A8789",
"0. c #429292",
"q. c #419394",
"w. c #46999A",
"e. c #43A3A6",
"r. c #4CA2A1",
"t. c #44A5A8",
"y. c #4BB8BC",
"u. c #5EBEBB",
"i. c #55D0D5",
"p. c #57D6DA",
"a. c #58D8DD",
"s. c #59DBE0",
"d. c #5ADDE2",
"f. c #5BDFE4",
"g. c #5CE1E6",
/* pixels */
"g.g.g.g.g.g.g.g.g.g.g.g.g.g.g.g.g.g.g.g.g.g.g.g.g.g.g.g.g.g.g.g.",
"g.g.g.g.g.d.y.D D D D D D D D D D D D D D D D S A t.a.g.g.g.g.g.",
"g.g.g.g.g.a.q.@ s s s s s s s s s s s s s s s s ; G i.g.g.g.g.g.",
"g.g.g.g.g.a.0.8 u   o o o o o o o o o o o o . , , F i.g.g.g.g.g.",
"g.g.g.g.g.a.0.4 r M 1.:.-.-.-.-.-.-.-.-.;.>.^ 7 : F i.g.g.g.g.g.",
"g.g.g.g.g.a.0.4 t Z 5. .! ~ ~ ~ ~ ~ ~ ~ / ;.o.0 : F i.g.g.g.g.g.",
"g.g.g.g.g.a.0.4 t Z #.e a H H H H H H f 6 W o.0 : F i.g.g.g.g.g.",
"g.g.g.g.g.a.0.4 t Z +.j L { { { { { { I a V o.0 : F i.g.g.g.g.g.",
"g.g.g.g.g.a.0.4 t Z +.k P } } } } } } ' h V o.0 : F i.g.g.g.g.g.",
"g.g.g.g.g.a.0.4 t Z *.U ` } } } } } } ' h V o.0 : F i.g.g.g.g.g.",
"g.g.g.g.g.a.0.4 t Z 4.) [ } } } } } } ' h V o.0 : F i.g.g.g.g.g.",
"g.g.g.g.g.a.0.4 t Z -.Y ' } } } } } } ' h V o.0 : F i.g.g.g.g.g.",
"g.g.g.g.g.a.0.4 t Z +.k P } } } } } } ' h V o.0 : F i.g.g.g.g.g.",
"g.g.g.g.g.a.0.4 t Z +.k P } } } } } } ' h V o.0 : F i.g.g.g.g.g.",
"g.g.g.g.g.a.0.4 t Z +.k L { { { { { { _ h V o.0 : F i.g.g.g.g.g.",
"g.g.g.g.g.a.0.4 t Z *.q = 1 1 1 1 1 1 X o ~ X.0 : F i.g.g.g.g.g.",
"g.g.g.g.g.a.0.4 t Z 7.3.1.1.1.1.1.1.<.O.m c v 0 : F i.g.g.g.g.g.",
"g.g.g.g.g.a.0.4 t Z 8.6.4.4.4.4.4.4.3.#.N x v 0 : F i.g.g.g.g.g.",
"g.g.g.g.g.a.r.z y Z -.l 2 3 3 3 3 3 3 O o ~ ..0 : F i.g.g.g.g.g.",
"g.g.g.g.g.f.u.C y Z +.j K ] ] ] ] ] ] L p V o.0 : F i.g.g.g.g.g.",
"g.g.g.g.g.a.w.9 y Z +.k P } } } } } } ' h V o.0 : F i.g.g.g.g.g.",
"g.g.g.g.g.a.0.4 t Z +.k P } } } } } } ' h V o.0 : F i.g.g.g.g.g.",
"g.g.g.g.g.a.0.4 t Z +.k P } } } } } } ' h V &.n , F i.g.g.g.g.g.",
"g.g.g.g.g.a.0.4 t Z +.k P } } } } } } ' h V ,.T < F i.g.g.g.g.g.",
"g.g.g.g.g.a.0.4 t Z +.k P } } } } } } ' h V %.i > F i.g.g.g.g.g.",
"g.g.g.g.g.a.0.4 t Z +.k P } } } } } } ' h V o.0 : F i.g.g.g.g.g.",
"g.g.g.g.g.a.0.4 t Z +.k P } } } } } } ' h V o.0 : F i.g.g.g.g.g.",
"g.g.g.g.g.a.0.4 t Z @.w d J J J J J J g 6 R o.0 : F i.g.g.g.g.g.",
"g.g.g.g.g.a.0.4 t Z 4.| R E E E E E E R Q =.o.0 : F i.g.g.g.g.g.",
"g.g.g.g.g.a.0.+ 7 B 4.1.:.:.:.:.:.:.:.:.1.2.( 5 - G i.g.g.g.g.g.",
"g.g.g.g.g.s.e.$ % & b b b b b b b b b b b b * # # 9.p.g.g.g.g.g.",
"g.g.g.g.g.g.g.g.g.g.g.g.g.g.g.g.g.g.g.g.g.g.g.g.g.g.g.g.g.g.g.g."
};
