/* XPM */
static char *_c3caf9c45364742be214d3b9856cfe7JnSR65qb9guG3q3R[] = {
/* columns rows colors chars-per-pixel */
"32 32 186 2 ",
"   c #5A3F43",
".  c #693E42",
"X  c #41474D",
"o  c #5C474B",
"O  c #4F4F53",
"+  c #475156",
"@  c #5A595D",
"#  c #694D4F",
"$  c #744A4C",
"%  c #65555A",
"&  c #6C555A",
"*  c #705053",
"=  c #715A5D",
"-  c #7A5D5F",
";  c #545D61",
":  c #5C5D60",
">  c #625C61",
",  c #765E61",
"<  c #7B5E61",
"1  c #44666C",
"2  c #4C666A",
"3  c #556467",
"4  c #5A6063",
"5  c #566E73",
"6  c #49757A",
"7  c #57757A",
"8  c #636466",
"9  c #696569",
"0  c #756467",
"q  c #776669",
"w  c #7A6669",
"e  c #7B716F",
"r  c #6A6E72",
"t  c #736E72",
"y  c #6C767A",
"u  c #65787B",
"i  c #737272",
"p  c #777D7F",
"a  c #7D7879",
"s  c #893B3D",
"d  c #983739",
"f  c #BE2E2E",
"g  c #AA2F30",
"h  c #A23536",
"j  c #B13434",
"k  c #BE3131",
"l  c #B03E3F",
"z  c #BC3C3D",
"x  c #C13434",
"c  c #C23A3A",
"v  c #CC3C3C",
"b  c #D43C3C",
"n  c #8E3E41",
"m  c #C63F40",
"M  c #87484A",
"N  c #8C4B4D",
"B  c #9B4547",
"V  c #924A4C",
"C  c #9A4849",
"Z  c #8C4F50",
"A  c #8B5355",
"S  c #875659",
"D  c #855C5E",
"F  c #985658",
"G  c #A94749",
"H  c #B24142",
"J  c #BC4344",
"K  c #B94C4D",
"L  c #A45456",
"P  c #AB5355",
"I  c #B65355",
"U  c #B1595A",
"Y  c #B85859",
"T  c #875E61",
"R  c #896A6D",
"E  c #887679",
"W  c #827D7D",
"Q  c #C44445",
"!  c #CB4444",
"~  c #C34848",
"^  c #CF4B4C",
"/  c #D54545",
"(  c #D44B4B",
")  c #D94D4D",
"_  c #C35555",
"`  c #CC5253",
"'  c #D45252",
"]  c #DA5353",
"[  c #85817D",
"{  c #487D82",
"}  c #527B81",
"|  c #657F84",
" . c #46868B",
".. c #48858B",
"X. c #5A8387",
"o. c #56888D",
"O. c #468B91",
"+. c #4A8C91",
"@. c #4B949A",
"#. c #4A999E",
"$. c #589499",
"%. c #608589",
"&. c #668488",
"*. c #7B8284",
"=. c #499CA2",
"-. c #599CA1",
";. c #4CA1A7",
":. c #51A2A6",
">. c #58A6AB",
",. c #5AA9AE",
"<. c #4FADB2",
"1. c #53ACB2",
"2. c #59ADB2",
"3. c #57B3B8",
"4. c #51B5BA",
"5. c #54BABF",
"6. c #59B9BD",
"7. c #54BBC1",
"8. c #56C5CA",
"9. c #57CED3",
"0. c #5ACDD2",
"q. c #5AD2D7",
"w. c #5AD5DA",
"e. c #5BDADF",
"r. c #5BDDE2",
"t. c #5CE1E6",
"y. c #848585",
"u. c #8B8584",
"i. c #8C8A88",
"p. c #938E8B",
"a. c #96928D",
"s. c #9B958F",
"d. c #898F92",
"f. c #8B9194",
"g. c #899699",
"h. c #9D9791",
"j. c #9E9892",
"k. c #949598",
"l. c #959699",
"z. c #A49D95",
"x. c #A6A099",
"c. c #ACA29A",
"v. c #B0A69E",
"b. c #B5AA9F",
"n. c #9BA3A6",
"m. c #9FA5A8",
"M. c #A4A7A9",
"N. c #A5A9AB",
"B. c #BCAFA4",
"V. c #BDB0A4",
"C. c #ACB1B2",
"Z. c #B2B3B5",
"A. c #B3B7B8",
"S. c #BCBDBF",
"D. c #C4B6AB",
"F. c #CABAAE",
"G. c #CCBDB1",
"H. c #D0BFB3",
"J. c #D5C3B6",
"K. c #D8C7B9",
"L. c #E1CDBE",
"P. c #BDC0C2",
"I. c #C2C4C5",
"U. c #C4C7C9",
"Y. c #C6C9CA",
"T. c #CACCCD",
"R. c #CDCFD1",
"E. c #CED1D2",
"W. c #D1D2D3",
"Q. c #D7D9D9",
"!. c #DADCDD",
"~. c #E3CFC1",
"^. c #E6D2C2",
"/. c #EAD5C5",
"(. c #EFD9C7",
"). c #EFDAC9",
"_. c #F0D9C7",
"`. c #F4DDCB",
"'. c #FAE1CE",
"]. c #FCE5D3",
"[. c #DEDFE0",
"{. c #E4E5E5",
"}. c #ECEDED",
"|. c #EFEFF0",
" X c #EFF0F0",
".X c #F3F3F3",
/* pixels */
"t.t.t.t.t.t.t.t.t.t.t.t.t.t.t.t.t.t.t.t.t.t.t.t.t.t.t.t.t.t.t.t.",
"t.t.t.t.t.t.t.t.t.r.q.6.-.o.} 7 6 } o.-.7.q.r.t.t.t.t.t.t.t.t.t.",
"t.t.t.t.t.t.t.r.0.>.u 9 , = : ; ; @ & & 4 7 1.0.r.t.t.t.t.t.t.t.",
"t.t.t.t.t.t.e.3.| 0 L P T t *.f.d.p 9 A G V % } 5.e.t.t.t.t.t.t.",
"t.t.t.t.r.q.,.r F ` I w k.R.}.}.}.{.I.y.S J Q M 3 1.w.t.t.t.t.t.",
"t.t.t.t.q.-.0 U ] _ w N.{..X.X.X.X.X.X!.f.A Q / B @ :.w.t.t.t.t.",
"t.t.t.w.>.0 Y ] ' F k.{..X.X.X.X.X.X.X.XW.p B b b G @ 1.r.t.t.t.",
"t.t.r.3.r U ] ] _ R U..X.X.X.X.X.X.X.X.X XM.A m b b B 2 7.r.t.t.",
"t.t.0.X.0 _ ] ] P u.Q..X.X.X.X.X.X.X.X.X.XI.w H b b l O { w.t.t.",
"t.r.,.u y.F ] ] F f.[..X.X.X.X.X.X.X.X.X.XR.i H b v M y.5 1.t.t.",
"t.q.%.n.C.< ] ] L p.!..X.X.X.X.X.X.X.X.X.XT.t H b v & U.n.{ r.t.",
"t.6.&.E.Y., ' ] I E E..X.X.X.X.X.X.X.X.X.XA.D z b c % Q.I.1 8.t.",
"t.>.d.{.T., ' ] ` D C.}..X.X.X.X.X.X.X.X{.f.V v b c % W.Y.| <.t.",
"t.$.n.{.P.- ' ) ) L a T.|..X.X.X.X.X.X}.Z., H b b c % Y.W.g.#.t.",
"t.%.C.{.M.S ] ) ) ( A W U.{.}..X.X}.{.Z.q B b b b c $ Z.W.N.O.t.",
"t.%.A.E.E I ) ) ) ) ^ F q k.S.E.T.A.i.= B v b v x k d W T.N. .t.",
"t.%.m.k.T ' ) ) ) ) ) ( K A & & & * N J v v x c x k j * N.m. .t.",
"t.X.y < K ( ( ( ( ( ( / / / ! ! Q v v v c c x x x k k h # y O.t.",
"t.$.8 P ~ Q Q Q ! ! ! ! ! Q Q J z z z c c c x x x k f f d X =.t.",
"t.2.9 K ~ Q Q Q Q Q H B V N A A A Z M n d j k x x k f f g O 4.t.",
"t.0.7 F ~ Q Q Q G N D e u.s.z.c.c.z.a.W w $ s j k f f f d 1 q.t.",
"t.r.,.9 P Q J C - [ c.F.H.^.(.(.(._.^.J.F.z.e $ d k f g o #.t.t.",
"t.t.q.$.= G C q z.J.^.D.u.G.(.(.).(.D.i.J._.J.p.# h j . 6 9.t.t.",
"t.t.r.0.$.> % a.L././.z.4 v./.).`.^.s.4 V.`.`.^.i .   6 8.t.t.t.",
"t.t.t.r.q.1.5 j.`.(.(.h.; x.^.`.`.^.p.@ b.`.'.'.i + O.8.r.t.t.t.",
"t.t.t.t.t.w.$.i.`.`.).z.4 v./.`.`.^.s.: B.'.'./.8 @.9.r.t.t.t.t.",
"t.t.t.t.t.r.1.p K.].`.F.a G.`.`.`.`.V.W K.'.'.D.3 7.r.t.t.t.t.t.",
"t.t.t.t.t.t.8.X.x.).].`.~.(.`.`.`.`.`./.`.'.^.[ { 9.t.t.t.t.t.t.",
"t.t.t.t.t.t.e.>.u z.K.^.^.^.^././././.^.L.F.y.2 4.r.t.t.t.t.t.t.",
"t.t.t.t.t.t.t.w.>.6 7 *.i.a.s.j.h.a.p.y.y 2 6 <.e.t.t.t.t.t.t.t.",
"t.t.t.t.t.t.t.t.t.q.5.:.@.+....... .O.@.;.5.w.t.t.t.t.t.t.t.t.t.",
"t.t.t.t.t.t.t.t.t.t.t.t.t.t.t.t.t.t.t.t.t.t.t.t.t.t.t.t.t.t.t.t."
};
