/* XPM */
static char *b83b024c88b04175eb2f284c6554c29dTXPsrp8RRNZu2vNb[] = {
/* columns rows colors chars-per-pixel */
"32 32 77 1 ",
"  c #423C38",
". c #463D3A",
"X c #493F3A",
"o c #4A403B",
"O c #4D413B",
"+ c #50423B",
"@ c #51433C",
"# c #53443C",
"$ c #56453C",
"% c #5B473E",
"& c #5C473E",
"* c #5B483E",
"= c #5E493E",
"- c #604A3E",
"; c #644B3F",
": c #634C3F",
"> c #644C3F",
", c #5F5045",
"< c #595048",
"1 c #5C544B",
"2 c #634D40",
"3 c #674E40",
"4 c #684D40",
"5 c #6C4F41",
"6 c #6E5042",
"7 c #6A5245",
"8 c #705141",
"9 c #755342",
"0 c #775543",
"q c #785543",
"w c #785544",
"e c #7D5744",
"r c #7E5845",
"t c #735D4E",
"y c #53635E",
"u c #496563",
"i c #4B6665",
"p c #4D6764",
"a c #526965",
"s c #576B66",
"d c #5A6C67",
"f c #5A6E68",
"g c #57736E",
"h c #507876",
"j c #547977",
"k c #835B46",
"l c #855B46",
"z c #865C46",
"x c #498182",
"c c #4E8283",
"v c #4B8384",
"b c #4C8484",
"n c #4F8A8A",
"m c #4F8C8C",
"M c #518483",
"N c #508685",
"B c #508A8A",
"V c #578D8B",
"C c #4F9293",
"Z c #619996",
"A c #529FA1",
"S c #51A5A8",
"D c #50ACAF",
"F c #51AEB1",
"G c #52B5B8",
"H c #54BABD",
"J c #55BFC3",
"K c #57CACF",
"L c #57CDD1",
"P c #58D4D9",
"I c #59D7DC",
"U c #59DADE",
"Y c #5ADBE0",
"T c #5BDEE3",
"R c #5BDFE4",
"E c #5BE0E5",
"W c #5CE1E6",
/* pixels */
"WWWWWWWWWWWWWWWWWWWWWWWWWWWWWWWW",
"WWWRUPPPPPPPPPPPPPPPPPPPPPPITWWW",
"WWPGCNMMMxcMMMMMMMMMMcxcMMNnSKEW",
"WRGh12>>-.$>>>>>>>>>>*O$->>,yAPW",
"WYC1rlllr@6zlllllllll0-5kllk4jJW",
"WIN2lllkr@6llllllllll0-4klll0fFW",
"WPN-reeeq+4reeeeeeeee6=3weee8dFW",
"WPbO====*X$====&%====$O$====$pFW",
"WIN*88888668886>$488886688883aFW",
"WYZtkkkkkkkkkkr8=wkkkkkkkkkk8dFW",
"WYZtllllllllllk8=wllllllllll0fFW",
"WUV7lkkkkkkkkkk8=wkkkkkkkkkk0dFW",
"WPb$66666666665-#46666666666-aFW",
"WPvO%%%%%O$%%%%$#%%%%$@$%%%%#pFW",
"WPN=00008O;00000000004%-00004sFW",
"WPN-lkkkr@5kkkkkkkkkk8=4kkkk0dFW",
"WPN>lllke@6llllllklll9-4kkkl0fFW",
"WPN:kkkkwO4kkkkkkkkkk8=4ekkk8dFW",
"WPvo%%%%$ O%%%%%%$$$%@XO$$%%@iFW",
"WPb#44443>34443=@;4443>33444=aFW",
"WPN-kkkkkkkkkke6&0kkkkkkkkkk8dFW",
"WPN>lllkllllllk8=wlkllllllll0fFW",
"WPN-lkllllllllk8=wkkkkllllll0fFW",
"WPb=wwwwwwwwww04%8wwwwwwwwww5sFW",
"WPvo%$$$$@$$$$$@O$$$$$@$$$$$@iFW",
"WPN=wqqq9+3wqqqqqqqqq6=3qqqq6sFW",
"WUN:lkkkr@6lkkkkkkkkk9-4kkkk9fFW",
"WUm,kllkr@6llllllllll0-4klll6gGW",
"WTSy40008O-00000000004%-8008<BLW",
"WWKAjfddsuaddddddddddspaddfgBHTW",
"WWEPJFDDDDDDDDDDDDDDDDDDDDFGLTWW",
"WWWWWWWWWWWWWWWWWWWWWWWWWWWWWWWW"
};
